{"title":"Blood Simple-720p MP4 AAC x264 BRRip 1984-CC","uid":7639590,"size":2275667739,"categoryP":"video","categoryS":"hd___movies","magnet":"?xt=urn:btih:99017cf7551de3baab2fe030ab6716d3bff5553a&amp;dn=Blood+Simple-720p+MP4+AAC+x264+BRRip+1984-CC&amp;tr=udp%3A%2F%2Ftracker.openbittorrent.com%3A80&amp;tr=udp%3A%2F%2Fopen.demonii.com%3A1337&amp;tr=udp%3A%2F%2Ftracker.coppersurfer.tk%3A6969&amp;tr=udp%3A%2F%2Fexodus.desync.com%3A6969","seeders":2,"leechers":3,"uploader":"Caveman44","files":-1,"time":1347742441,"description":" &lt;a href=&quot;http://www.imdb.com/title/tt0086979/&quot; rel=&quot;nofollow&quot; target=&quot;_NEW&quot;&gt;http://www.imdb.com/title/tt0086979/&lt;/a&gt;\n\nSource: Blood.Simple.1984.720p.BluRay.x264.DTS-WiKi Thanks!\n\nSubs: Arabic, Brazilian, Bulgarian, Croatian, Dutch, English, Farsi-Persian, French, Greek, Hebrew, Polish, Portuguese, Spanish, Turkish and Vietnamese.\n\nSample and Screens included.\n\nGeneral\nComplete name                            : Blood Simple-720p MP4 AAC x264 BRRip 1984-CC.mp4\nFormat                                   : MPEG-4\nFormat profile                           : Base Media\nCodec ID                                 : isom\nFile size                                : 2.10 GiB\nDuration                                 : 1h 35mn\nOverall bit rate mode                    : Variable\nOverall bit rate                         : 3 137 Kbps\nEncoded date                             : UTC 2012-09-14 09:15:12\n\nVideo\nID                                       : 1\nFormat                                   : AVC\nFormat/Info                              : Advanced Video Codec\nFormat profile                           : &lt;a class=&quot;__cf_email__&quot; href=&quot;/cdn-cgi/l/email-protection&quot; data-cfemail=&quot;367e5f515e767a051807&quot;&gt;[email&amp;#160;protected]&lt;/a&gt;&lt;script cf-hash='f9e31' type=&quot;text/javascript&quot;&gt;\n/* &lt;![CDATA[ */!function(){try{var t=&quot;currentScript&quot;in document?document.currentScript:function(){for(var t=document.getElementsByTagName(&quot;script&quot;),e=t.length;e--;)if(t[e].getAttribute(&quot;cf-hash&quot;))return t[e]}();if(t&amp;&amp;t.previousSibling){var e,r,n,i,c=t.previousSibling,a=c.getAttribute(&quot;data-cfemail&quot;);if(a){for(e=&quot;&quot;,r=parseInt(a.substr(0,2),16),n=2;a.length-n;n+=2)i=parseInt(a.substr(n,2),16)^r,e+=String.fromCharCode(i);e=document.createTextNode(e),c.parentNode.replaceChild(e,c)}}}catch(u){}}();/* ]]&gt; */&lt;/script&gt;\nFormat settings, CABAC                   : Yes\nFormat settings, ReFrames                : 5 frames\nCodec ID                                 : avc1\nCodec ID/Info                            : Advanced Video Coding\nDuration                                 : 1h 35mn\nBit rate                                 : 2 863 Kbps\nMaximum bit rate                         : 15.5 Mbps\nWidth                                    : 1 280 pixels\nHeight                                   : 688 pixels\nDisplay aspect ratio                     : 1.85:1\nFrame rate mode                          : Variable\nFrame rate                               : 23.976 fps\nMinimum frame rate                       : 23.810 fps\nMaximum frame rate                       : 24.390 fps\nColor space                              : YUV\nChroma subsampling                       : 4:2:0\nBit depth                                : 8 bits\nScan type                                : Progressive\nBits/(Pixel*Frame)                       : 0.136\nStream size                              : 1.88 GiB (90%)\nWriting library                          : x264 core 112\n\nAudio\nID                                       : 2\nFormat                                   : AAC\nFormat/Info                              : Advanced Audio Codec\nFormat profile                           : LC\nCodec ID                                 : 40\nDuration                                 : 1h 35mn\nBit rate mode                            : Variable\nBit rate                                 : 311 Kbps\nMaximum bit rate                         : 386 Kbps\nChannel(s)                               : 2 channels\nChannel positions                        : Front: L R\nSampling rate                            : 48.0 KHz\nCompression mode                         : Lossy\nDelay relative to video                  : 83ms\nStream size                              : 212 MiB (10%)\nLanguage                                 : English\n\n\nEnjoy...\n\nRequested by DreamExtractor.\n\nComing up soon: Cradle 2 The Grave, Days of Heaven, Batman Begins and more...","torrent":{"xt":"urn:btih:99017cf7551de3baab2fe030ab6716d3bff5553a","amp;dn":"Blood+Simple-720p+MP4+AAC+x264+BRRip+1984-CC","amp;tr":["udp%3A%2F%2Ftracker.openbittorrent.com%3A80","udp%3A%2F%2Fopen.demonii.com%3A1337","udp%3A%2F%2Ftracker.coppersurfer.tk%3A6969","udp%3A%2F%2Fexodus.desync.com%3A6969"],"infoHash":"99017cf7551de3baab2fe030ab6716d3bff5553a","infoHashBuffer":{"type":"Buffer","data":[153,1,124,247,85,29,227,186,171,47,224,48,171,103,22,211,191,245,85,58]},"announce":[],"urlList":[]}}